# xmcd CD database file
#
# Track frame offsets:
#	150
#	13724
#	26208
#	36637
#	48220
#	65088
#	78304
#	94377
#	105561
#	122841
#	135342
#
# Disc length: 2033 seconds
#
# Revision: 1
# Processed by: cddbd v1.5.2PL0 Copyright (c) Steve Scherf et al.
# Submitted via: CDex 1.70beta2
#
DISCID=9507ef0b
DTITLE=Brandy Davidson - My One And Only
DYEAR=1999
DGENRE=Country
TTITLE0=Heartaches By The Number
TTITLE1=Leaving, Standing Tall
TTITLE2=Don't We All Have The Right
TTITLE3=A Fool Such As I
TTITLE4=My One And Only
TTITLE5=Poor Man's Roses
TTITLE6=Tips Of My fingers
TTITLE7=Hello Walls
TTITLE8=Don't Tell Mama
TTITLE9=Tennessee Flat Top Box
TTITLE10=Four Walls
EXTD=YEAR: 1999
EXTT0=
EXTT1=
EXTT2=
EXTT3=
EXTT4=
EXTT5=
EXTT6=
EXTT7=
EXTT8=
EXTT9=
EXTT10=
PLAYORDER=
